<svg id="alarm-clock" xmlns="http://www.w3.org/2000/svg" viewBox="0 0 64 64" aria-labelledby="title desc">
<title id="title">Alarm Clock Icon</title>
<desc id="desc">Button with alarm clock icon that gets animated on click</desc>
<g id="clock">
	<path id="circle" fill="#FFFFFF" d="M32,13c14,0,25.5,10.8,25.5,24S46,61,32,61S6.5,50.2,6.5,37S18,13,32,13 M32,10
		C16.3,10,3.5,22.1,3.5,37S16.3,64,32,64s28.5-12.1,28.5-27S47.7,10,32,10L32,10z"/>
	<path id="cowbell-left" fill="#FFFFFF" d="M6.4,19l-1.6-2.3c-1.7-2.4-0.9-5.9,1.8-7.8l4.9-3.5c2.7-1.9,6.3-1.6,8,0.8L21,8.4L6.4,19z"
		/>
	<path id="cowbell-right" fill="#FFFFFF" d="M57.3,19.1l1.7-2.2c1.8-2.3,1.1-5.8-1.6-7.8l-4.8-3.6c-2.6-2-6.2-1.8-8,0.6L43,8.1
		L57.3,19.1z"/>
	<rect id="minutes" x="29.8" y="16.5" fill="#FFFFFF" width="3" height="22.4"/>
	<rect id="hour" x="32.8" y="35.8" fill="#FFFFFF" width="15" height="3"/>
</g>
<g id="ring-effect">
	<path fill="#FFFFFF" d="M4,9C3.4,9,3,8.6,3,8c0-3.9,3.6-7,8-7c0.6,0,1,0.4,1,1s-0.4,1-1,1C7.7,3,5,5.2,5,8C5,8.6,4.6,9,4,9z"/>
	<path fill="#FFFFFF" d="M60,9c-0.6,0-1-0.4-1-1c0-2.8-2.7-5-6-5c-0.6,0-1-0.4-1-1s0.4-1,1-1c4.4,0,8,3.1,8,7C61,8.6,60.6,9,60,9z"
		/>
</g>
</svg>
