<svg id="bell" xmlns="http://www.w3.org/2000/svg" viewBox="0 0 64 64">
<g>
	<path id="bell" fill="#FFFFFF" d="M63.9,55H0.3l1.5-2.3c0.1-0.1,7.9-12,8.9-19.5l0.5-12.7C11.2,10.1,19.7,1,29.4,1h5.2
		c9.3,0,17.2,9.1,17.2,19.9l0.5,12.4c1,7,9.8,19.3,9.9,19.4L63.9,55z M5.8,52h52.3c-2.7-4.1-8-12.6-8.8-18.4v-0.1L48.8,21
		c0-8.3-5.7-17-14.2-17h-5.2c-8.1,0-15.2,7.7-15.2,16.5l-0.5,12.9C12.9,39.6,8.2,48,5.8,52z"/>
	<path id="clapper" fill="#FFFFFF" d="M21,53v2.2c0,4.9,5,8.8,10.3,8.8h0.2c5.3,0,10.4-3.9,10.4-8.8V53H21z M32.9,62.1
		c-0.5,0-0.9-0.4-0.9-0.9s0.4-0.9,0.9-0.9c2.2,0,4-1.6,4-3.6c0-0.5,0.4-0.9,0.9-0.9s0.9,0.4,0.9,0.9C38.8,59.8,36.2,62.1,32.9,62.1z
		"/>
</g>
</svg>
