<?xml version="1.0" encoding="utf-8"?>
<!-- Generator: Adobe Illustrator 18.0.0, SVG Export Plug-In . SVG Version: 6.00 Build 0)  -->
<!DOCTYPE svg PUBLIC "-//W3C//DTD SVG 1.1//EN" "http://www.w3.org/Graphics/SVG/1.1/DTD/svg11.dtd">
<svg version="1.1" id="bug" xmlns="http://www.w3.org/2000/svg" xmlns:xlink="http://www.w3.org/1999/xlink" x="0px" y="0px"
	 viewBox="0 0 64 64" enable-background="new 0 0 64 64" xml:space="preserve">
<g>
	<path id="right-upper-leg" d="M59.9,12.1L59.9,12.1c0.8,0.9,0.8,2.2,0.1,3L50.5,25l-2.9-3l9.4-9.9C57.8,11.3,59.1,11.3,59.9,12.1z"
		/>
	<path id="left-upper-leg" d="M4.1,12.1L4.1,12.1c-0.8,0.9-0.8,2.2-0.1,3l9.4,9.9l2.9-3L7,12.1C6.2,11.3,4.9,11.3,4.1,12.1z"/>
	<path id="left-bottom-leg" d="M4.1,61.4L4.1,61.4c-0.8-0.9-0.8-2.2-0.1-3l9.4-9.9l2.9,3L7,61.4C6.2,62.2,4.9,62.2,4.1,61.4z"/>
	<path id="right-bottom-leg" d="M59.9,61.4L59.9,61.4c0.8-0.9,0.8-2.2,0.1-3l-9.4-9.9l-2.9,3l9.4,9.9C57.8,62.2,59.1,62.2,59.9,61.4
		z"/>
	<path id="left-middle-leg" d="M0.5,36.2v0.3c0,1.1,0.9,2,2,2h13.3v-4.3H2.5C1.4,34.2,0.5,35.1,0.5,36.2z"/>
	<path id="right-middle-leg" d="M63.5,36.5v-0.3c0-1.1-0.9-2-2-2H48.3v4.3h13.3C62.6,38.5,63.5,37.6,63.5,36.5z"/>
	<g id="body">
		<path d="M12,22v19.7c0,10.3,7,18.7,17,19.2V27h5v33.9c10,0,18-8.7,18-19.3V22H12z"/>
	</g>
	<path id="head" d="M31.5,5.1C23.9,5.1,17.8,11,17.8,19h27.5C45.2,11,39.1,5.1,31.5,5.1z"/>
	<path id="left-eye" d="M25.6,9.9l-5-5.2c0.1-0.3,0.2-0.6,0.2-1c0-1.5-1.1-2.7-2.5-2.7c-1.4,0-2.5,1.2-2.5,2.7
		c0,1.5,1.1,2.7,2.5,2.7c0.3,0,0.6-0.1,0.9-0.2l5,5.2L25.6,9.9z"/>
	<path id="right-eye" d="M44.7,1c-1.4,0-2.5,1.2-2.5,2.7c0,0.3,0.1,0.7,0.2,1l-5,5.2l1.4,1.5l5-5.2c0.3,0.1,0.6,0.2,0.9,0.2
		c1.4,0,2.5-1.2,2.5-2.7C47.3,2.2,46.1,1,44.7,1z"/>
</g>
</svg>
