<svg id="camera" xmlns="http://www.w3.org/2000/svg" viewBox="0 0 64 64">
<g>
	<path id="body" fill="#ffffff" d="M0,14v39h64V14H0z M10,21c-1.1,0-2-0.9-2-2c0-1.1,0.9-2,2-2s2,0.9,2,2C12,20.1,11.1,21,10,21z
		 M32,45c-6.6,0-12-5.4-12-12c0-6.6,5.4-12,12-12s12,5.4,12,12C44,39.6,38.6,45,32,45z"/>
	<circle id="lenz-inner" fill="#ffffff" cx="32" cy="33" r="9.8"/>
	<path id="bottom" fill="#ffffff" d="M64,54v1.7c0,1.1-1.3,2.3-3,2.3H3c-1.7,0-3-1.2-3-2.3V54H64z"/>
	<path id="top" fill="#ffffff" d="M61,9H47h-2.5C43.7,9,43,8.7,43,8V7.6V7.1C43,6,41.9,5,40.5,5h-18C21.1,5,20,6,20,7.1v0.4
		C20,8.5,19.1,9,18,9h-2H3c-1.7,0-3,1.2-3,2.3V13h64v-1.7C64,10.2,62.7,9,61,9z"/>
	<path id="button" fill="#ffffff" d="M11,6H9C7.9,6,7,6.9,7,8h6C13,6.9,12.1,6,11,6z"/>
</g>
</svg>
