<svg xmlns="http://www.w3.org/2000/svg" viewBox="0 0 96 96">
<g id="cart-items">
	<rect id="item-4" x="49.6" y="27" fill="#FFFFFF" width="10" height="35"/>
	<rect id="item-3" x="33.5" y="12.8" transform="matrix(0.5563 0.831 -0.831 0.5563 41.042 -18.7875)" fill="#FFFFFF" width="9.3" height="32.5"/>
	<rect id="item-2" x="24" y="41.9" fill="#FFFFFF" width="25" height="20"/>
	<polygon id="item-1" fill="#FFFFFF" points="67.1,43.9 59.8,40.9 68.4,19.1 75.8,22.1 	"/>
</g>
<g id="cart">
	<g id="cart-wheels">
		<circle id="wheel-1" fill="#FFFFFF" cx="30.8" cy="82.3" r="5"/>
		<circle id="wheel-2" fill="#FFFFFF" cx="57.8" cy="82.3" r="5"/>
	</g>
	<path id="cart-body" fill="#FFFFFF" d="M78.9,17c-0.8-0.2-1.6,0.2-1.8,1l-4,15H16.7c0,0,0.1,0,0.1,0c-0.1,0,0.1,0-0.1,0
		c-0.8,0.2-1.8,1.2-1.6,2l6.1,28.4C21.3,64,22,65,22.7,65c0,0,0,0,0,0h41.9l-2,7H24.7c-0.8,0-1.5,0.7-1.5,1.5s0.7,1.5,1.5,1.5h39
		c0.2,0,0.3,0,0.4-0.1c0,0,0.1,0,0.1,0c0,0,0,0,0.1,0c0.4-0.2,0.7-0.5,0.9-1l14.8-55.1C80.1,18,79.7,17.2,78.9,17z M50.5,62l0.3-6.6
		l6.8,0L56.9,62H50.5z M41,43l0-7h7.7l-0.3,7H41z M48.2,46L48,52.1l-6.9,0l0-6.1H48.2z M38,43h-7.3l-0.7-7h8L38,43z M38,46l0,6.1
		l-6.4,0L31.1,46H38z M38.1,55.4l0,6.6h-5.4L32,55.4L38.1,55.4z M41.1,55.4l6.7,0L47.5,62h-6.4L41.1,55.4z M51,52.1l0.3-6.1h7.4
		L58,52.1L51,52.1z M51.4,43l0.3-7h8l-0.7,7H51.4z M18.4,36h8.7l0.7,7h-7.9L18.4,36z M20.5,46H28l0.6,6.1l-6.8,0L20.5,46z
		 M22.5,55.4l6.5,0l0.7,6.6h-5.7L22.5,55.4z M65.4,62h-5.5l0.7-6.6l6.5,0L65.4,62z M67.9,52.1l-6.9,0l0.7-6.1h7.9L67.9,52.1z
		 M70.4,43H62l0.7-7h9.5L70.4,43z"/>
</g>
</svg>
