<?xml version="1.0" encoding="utf-8"?>
<!-- Generator: Adobe Illustrator 18.0.0, SVG Export Plug-In . SVG Version: 6.00 Build 0)  -->
<!DOCTYPE svg PUBLIC "-//W3C//DTD SVG 1.1//EN" "http://www.w3.org/Graphics/SVG/1.1/DTD/svg11.dtd">
<svg version="1.1" id="eye" xmlns="http://www.w3.org/2000/svg" xmlns:xlink="http://www.w3.org/1999/xlink" x="0px" y="0px"
	 viewBox="0 0 64 64" enable-background="new 0 0 64 64" xml:space="preserve">
<g>
	<path id="main-eye_1_" fill="#FFFFFF" d="M32.7,15.8c2,0,12.5,0.8,28.7,16.9c0,0.1,0.1,0.2,0.1,0.3c0,0,0,0-0.1,0.1
		C59.5,35.1,44.2,50,32.9,50c-5.1,0-11-2-17.1-5.9c-4.7-3-9.5-7-13.3-11.2c-0.1-0.2-0.1-0.5-0.1-0.6l0,0
		c3.7-3.8,16.8-16.4,28.9-16.4c0.3,0,0.5,0,0.8,0l0.2,0l0.1,0C32.4,15.8,32.5,15.8,32.7,15.8 M32.7,13.8c-0.4,0-0.6,0-0.6,0
		c-0.3,0-0.6,0-0.9,0c-14.4,0-29.6,16.3-30.5,17.2c-0.9,1.1,0,2.9,0,2.9c6.7,7.5,19.7,18,32.1,18s28.7-16.1,30-17.5
		c1.3-1.5,0-3.1,0-3.1C46.4,14.9,35.4,13.8,32.7,13.8L32.7,13.8z"/>
	<path id="outer-pupil" fill="#FFFFFF" d="M32,46.2c-7.3,0-13.3-6-13.3-13.3s6-13.3,13.3-13.3s13.3,6,13.3,13.3S39.3,46.2,32,46.2z
		 M32,21.7c-6.2,0-11.3,5.1-11.3,11.3S25.8,44.2,32,44.2c6.2,0,11.3-5.1,11.3-11.3S38.2,21.7,32,21.7z"/>
	<path id="inner-pupil" fill="#FFFFFF" d="M32,40.7c-4.3,0-7.8-3.5-7.8-7.8c0-4.3,3.5-7.8,7.8-7.8s7.8,3.5,7.8,7.8
		C39.8,37.2,36.3,40.7,32,40.7z"/>
</g>
</svg>
