<svg id="face" xmlns="http://www.w3.org/2000/svg" viewBox="0 0 64 64">
<g>
	<g id="eyes">
		<circle stroke="#FFFFFF" stroke-miterlimit="10" cx="22" cy="23" r="5"/>
		<circle stroke="#FFFFFF" stroke-miterlimit="10" cx="42" cy="23" r="5"/>
	</g>
	<path id="circle" d="M32,5c16,0,27,11,27,27S48,59,32,59S5,48,5,32S16,5,32,5 M32,0C14.4,0,0,14.4,0,32s14.3,32,32,32
		s32-14.3,32-32S49.7,0,32,0L32,0z"/>
	<path id="smile" d="M32.2,49c-5.1,0-10.2-1.9-14.1-5.6c-1-1-1-2.5-0.1-3.5c1-1,2.5-1,3.5-0.1c5.9,5.7,15.5,5.7,21.4,0
		c1-1,2.6-0.9,3.5,0.1c1,1,0.9,2.6-0.1,3.5C42.5,47.1,37.3,49,32.2,49z"/>
	<path id="frown" d="M32.2,39c-5.2,0-10.3,1.9-14.3,5.7c-1,1-1,2.5-0.1,3.5c1,1,2.5,1,3.5,0.1c5.9-5.7,15.6-5.7,21.6,0
		c1,1,2.6,0.9,3.5-0.1c1-1,0.9-2.6-0.1-3.5C42.5,40.9,37.4,39,32.2,39z"/>
</g>
</svg>
