<?xml version="1.0" encoding="utf-8"?>
<!-- Generator: Adobe Illustrator 18.0.0, SVG Export Plug-In . SVG Version: 6.00 Build 0)  -->
<!DOCTYPE svg PUBLIC "-//W3C//DTD SVG 1.1//EN" "http://www.w3.org/Graphics/SVG/1.1/DTD/svg11.dtd">
<svg version="1.1" id="frog" xmlns="http://www.w3.org/2000/svg" xmlns:xlink="http://www.w3.org/1999/xlink" x="0px" y="0px"
	 viewBox="0 0 64 64" enable-background="new 0 0 64 64" xml:space="preserve">
<g>
	<path id="eye-left" fill="#FFFFFF" d="M20,9c-4.5,0-8.1,3.6-8.1,8.1c0,4.5,3.6,8.1,8.1,8.1s8.1-3.6,8.1-8.1C28.2,12.6,24.5,9,20,9z
		 M22,18.3c-2,0-3.6-1.6-3.6-3.6c0-2,1.6-3.6,3.6-3.6c2,0,3.6,1.6,3.6,3.6C25.6,16.7,24,18.3,22,18.3z"/>
	<path id="eye-right" fill="#FFFFFF" d="M41.8,9c-4.5,0-8.1,3.6-8.1,8.1c0,4.5,3.6,8.1,8.1,8.1s8.1-3.6,8.1-8.1
		C49.9,12.6,46.3,9,41.8,9z M43.7,18.1c-2,0-3.5-1.6-3.5-3.5c0-1.9,1.6-3.5,3.5-3.5s3.5,1.6,3.5,3.5C47.2,16.6,45.6,18.1,43.7,18.1z
		"/>
	<path fill="#FFFFFF" d="M62.7,34.3c-1.5-1.5-6.6,1.4-11.7,6.3V38c0-5.3-2.7-10-6.5-13.3c-0.8,0.3-1.8,0.4-2.6,0.4
		c-3.4,0-6.3-2-7.6-4.9c-0.8-0.1-1.7-0.2-2.6-0.2h-0.6c-1.3,0-2.5,0.1-3.7,0.4c-1.3,2.8-4.1,4.8-7.4,4.8c-0.6,0-1.3-0.1-1.9-0.2
		C14.5,28.2,12,32.8,12,38v1.5c-4.6-4.3-9.2-6.6-10.5-5.2C0,35.7,2.9,41,8,46.1c2,2,3.7,3.7,5.8,4.9c1.1,0.4,1.4,0.8,1.9,1.1h3.4h1
		H44h4.4c0.5,0,0.8-0.6,1.8-1c0.1,0,0.1-0.1,0.1-0.1c2.1-1.2,3.8-2.9,5.8-4.9C61.3,41,64.1,35.7,62.7,34.3z M34.9,39.2
		c-0.5,0.1-1,0.1-1.5,0.1c-5.6,0-10.9-4.4-11.1-4.6l1.3-1.5c0.1,0,5.8,4.8,11,4c2.2-0.3,4.1-1.6,5.5-3.8l1.7,1.1
		C40,37.3,37.7,38.8,34.9,39.2z"/>
</g>
</svg>
