<svg id="gear" xmlns="http://www.w3.org/2000/svg" viewBox="0 0 64 64">
<g>
	<path d="M32,63c-1.4,0-2.8-0.2-4.2-0.4c-1.4-0.2-2.6-1.6-2.4-3c0.2-3.4-1.4-6.6-4.4-8.4c-1.4-0.8-3-1.2-4.4-1.2
		c-1.8,0-3.6,0.6-5,1.6c-0.4,0.2-1,0.4-1.4,0.4c-1,0-1.8-0.4-2.4-1.2c-1.8-2.2-3-4.6-4.2-7.2c-0.6-1.4,0-3,1.6-3.8
		c3-1.6,4.8-4.6,4.8-8s-1.8-6.4-4.8-8c-1.4-0.8-2-2.4-1.6-3.8c1-2.6,2.4-5,4.2-7.2c0.2-0.6,1.2-1,2-1c0.6,0,1,0.2,1.4,0.4
		c1.4,1,3.2,1.6,5,1.6c1.6,0,3.2-0.4,4.4-1.2c3-1.8,4.6-5,4.4-8.4c0-1.4,1-2.8,2.4-3s2.8-0.4,4.2-0.4c1.4,0,2.8,0.2,4.2,0.4
		s2.6,1.6,2.4,3c-0.2,3.4,1.4,6.6,4.4,8.4c1.4,0.8,3,1.2,4.4,1.2c1.8,0,3.6-0.6,5-1.6c0.4-0.2,1-0.4,1.4-0.4c1,0,1.8,0.4,2.4,1.2
		c1.8,2.2,3.2,4.6,4.2,7.2c0.6,1.4,0,3-1.6,3.8c-3,1.6-4.8,4.6-4.8,8s1.8,6.4,4.8,8c1.4,0.8,2,2.4,1.6,3.8c-1,2.6-2.4,5-4.2,7.2
		c-0.6,0.8-1.4,1.2-2.4,1.2c-0.6,0-1-0.2-1.4-0.4c-1.4-1-3.2-1.6-5-1.6c-1.6,0-3.2,0.4-4.4,1.2c-3,1.8-4.6,5-4.4,8.4
		c0,1.4-1,2.8-2.4,3C34.8,62.8,33.4,63,32,63z M32,21c-6,0-11,5-11,11s5,11,11,11s11-5,11-11S38,21,32,21z"/>
	<path fill="#FFFFFF" d="M32,2c1.4,0,2.8,0,4.2,0.2c1,0.2,1.6,1,1.6,1.8c-0.2,3.8,1.6,7.4,5,9.2c1.6,0.8,3.2,1.4,5,1.4
		c2,0,4-0.6,5.6-1.6c0.2-0.2,0.6-0.2,1-0.2c0.6,0,1.2,0.2,1.6,0.8c1.6,2.2,3,4.4,4,7c0.4,1,0,2-1,2.6c-3.2,1.8-5.2,5.2-5.2,8.8
		c0,3.6,2,7,5.2,8.8c1,0.6,1.4,1.6,1,2.6c-1,2.6-2.4,4.8-4,7c-0.4,0.6-1,0.8-1.6,0.8c-0.4,0-0.6,0-1-0.2c-1.6-1.2-3.6-1.6-5.6-1.6
		c-1.8,0-3.4,0.4-5,1.4c-3.4,2-5.2,5.4-5,9.2c0,0.8-0.6,1.8-1.6,1.8C34.8,62,33.4,62,32,62s-2.8,0-4.2-0.2c-1-0.2-1.6-1-1.6-1.8
		c0.2-3.8-1.6-7.4-5-9.2c-1.6-0.8-3.2-1.4-5-1.4c-2,0-4,0.6-5.6,1.6c-0.2,0.2-0.6,0.2-1,0.2C9,51.2,8.4,51,8,50.4
		c-1.6-2.2-3-4.4-4-7c-0.4-1,0-2,1-2.6c3.2-1.8,5.2-5.2,5.2-8.8s-2-7-5.2-8.8c-1-0.6-1.4-1.6-1-2.6c1-2.6,2.4-4.8,4-7
		c0.4-0.6,1-0.8,1.6-0.8c0.4,0,0.6,0,1,0.2c1.6,1.2,3.6,1.6,5.6,1.6c1.8,0,3.4-0.4,5-1.4c3.4-2,5.2-5.4,5-9.2c0-0.8,0.6-1.8,1.6-1.8
		C29.2,2,30.6,2,32,2 M32,44c6.6,0,12-5.4,12-12s-5.4-12-12-12s-12,5.4-12,12S25.4,44,32,44 M32,0c-1.4,0-3,0.2-4.4,0.4
		c-2,0.2-3.4,2-3.4,4c0.2,3-1.2,5.8-4,7.4c-1.2,0.8-2.6,1-4,1c-1.6,0-3.2-0.4-4.4-1.4c-0.6-0.4-1.4-0.6-2-0.6
		c-1.2,0-2.4,0.6-3.2,1.6c-1.6,2.2-3,4.8-4.2,7.4c-0.8,2,0,4.2,2,5c2.6,1.4,4.2,4,4.2,7s-1.8,5.6-4.2,7c-1.8,1-2.8,3.2-2,5
		c1,2.6,2.6,5.2,4.2,7.4c0.8,1,2,1.6,3.2,1.6c0.6,0,1.4-0.2,2-0.6c1.4-0.8,2.8-1.4,4.4-1.4c1.4,0,2.8,0.4,4,1c2.8,1.6,4.2,4.4,4,7.4
		c-0.2,2,1.4,3.8,3.4,4c1.4,0.2,2.8,0.4,4.4,0.4c1.4,0,3-0.2,4.4-0.4c2-0.2,3.4-2,3.4-4c-0.2-3,1.2-5.8,4-7.4c1.2-0.8,2.6-1,4-1
		c1.6,0,3.2,0.4,4.4,1.4c0.6,0.4,1.4,0.6,2,0.6c1.2,0,2.4-0.6,3.2-1.6c1.8-2.2,3.2-4.8,4.2-7.4c0.8-2,0-4.2-2-5
		c-2.6-1.4-4.2-4-4.2-7s1.8-5.6,4.2-7c1.8-1,2.8-3.2,2-5c-1-2.6-2.6-5.2-4.2-7.4c-0.8-1-2-1.6-3.2-1.6c-0.6,0-1.4,0.2-2,0.6
		c-1.4,0.8-2.8,1.4-4.4,1.4c-1.4,0-2.8-0.4-4-1c-2.8-1.6-4.2-4.4-4-7.4c0.2-2-1.4-3.8-3.4-4C35,0.2,33.4,0,32,0L32,0z M32,42
		c-5.6,0-10-4.4-10-10s4.4-10,10-10s10,4.4,10,10S37.6,42,32,42L32,42z"/>
</g>
</svg>
