<svg id="light-bulb" xmlns="http://www.w3.org/2000/svg" viewBox="0 0 64 64">
<g id="bulb">
	<path id="bulb-top" fill="#FFFFFF" d="M51.6,22.1c0,7.1-2.7,9.6-7.8,14.9c-3.2,4.3-3.6,10.7-3.6,10.7l0,0l0,0
		c0,0.8-0.7,1.6-1.5,1.6H26.6c-0.8,0-1.4-0.8-1.4-1.6v-0.2c-0.8-6-4.5-10.4-5.6-11.6c-0.1-0.1-0.1-0.1-0.1-0.1
		c-3.8-3.2-6.2-8.3-6.2-13.8c0-10.6,8.5-19,19.1-19S51.6,11.5,51.6,22.1z"/>
	<path id="bulb-base" fill="#FFFFFF" d="M40.2,51.8V52c0,0.8-0.6,1.5-1.4,1.5H26.7c-0.8,0-1.4-0.7-1.4-1.5v-0.2
		c0-0.8,0.6-1.5,1.4-1.5h12.1C39.6,50.4,40.2,51,40.2,51.8z M38.8,54.9H26.7c-0.8,0-1.4,0.7-1.4,1.5v0.2c0,0.8,0.6,1.5,1.4,1.5h12.1
		c0.8,0,1.4-0.7,1.4-1.5v-0.2C40.2,55.6,39.6,54.9,38.8,54.9z M32.7,63c2.5,0,4.3-1.7,4.3-3.4h-8.7C28.4,61.3,30.3,63,32.7,63z"/>
</g>
<g id="beams">
	<rect x="31" y="1" fill="#FFFFFF" width="1.4" height="5.7"/>

		<rect x="19.2" y="4.6" transform="matrix(-0.8658 0.5004 -0.5004 -0.8658 40.7649 3.8614)" fill="#FFFFFF" width="1.4" height="5.7"/>

		<rect x="10.7" y="13.5" transform="matrix(-0.4996 0.8662 -0.8662 -0.4996 31.3583 14.6459)" fill="#FFFFFF" width="1.4" height="5.7"/>
	<rect x="5.8" y="27.7" fill="#FFFFFF" width="5.7" height="1.4"/>

		<rect x="11.4" y="37.4" transform="matrix(0.4996 0.8662 -0.8662 0.4996 40.9104 9.6007)" fill="#FFFFFF" width="1.4" height="5.7"/>

		<rect x="52.7" y="36.1" transform="matrix(0.4996 -0.8662 0.8662 0.4996 -7.0153 65.7358)" fill="#FFFFFF" width="1.4" height="5.7"/>
	<rect x="53.4" y="26.2" fill="#FFFFFF" width="5.7" height="1.4"/>

		<rect x="52" y="12.3" transform="matrix(-0.4996 -0.8662 0.8662 -0.4996 65.9505 68.2867)" fill="#FFFFFF" width="1.4" height="5.7"/>

		<rect x="43" y="3.8" transform="matrix(-0.8658 -0.5004 0.5004 -0.8658 78.2424 34.3481)" fill="#FFFFFF" width="1.4" height="5.7"/>
</g>
</svg>
