<?xml version="1.0" encoding="utf-8"?>
<!-- Generator: Adobe Illustrator 18.0.0, SVG Export Plug-In . SVG Version: 6.00 Build 0)  -->
<!DOCTYPE svg PUBLIC "-//W3C//DTD SVG 1.1//EN" "http://www.w3.org/Graphics/SVG/1.1/DTD/svg11.dtd">
<svg version="1.1" id="link-broken" xmlns="http://www.w3.org/2000/svg" xmlns:xlink="http://www.w3.org/1999/xlink" x="0px"
	 y="0px" viewBox="0 0 64 64" enable-background="new 0 0 64 64" xml:space="preserve">
<g>
	<path fill="#FFFFFF" d="M45.6,37.5l-3.5-3.5l12.3-12.3c3.4-3.4,3.4-8.9,0-12.2c-1.6-1.6-3.8-2.5-6.1-2.5s-4.5,0.9-6.1,2.5
		L29.9,21.7l-3.5-3.5L38.6,5.9c2.6-2.6,6-4,9.7-4c3.7,0,7.1,1.4,9.7,4c5.3,5.3,5.3,14,0,19.3L45.6,37.5z"/>
	<path fill="#FFFFFF" d="M17.2,60.2c-3.7,0-7.1-1.4-9.7-4c-5.3-5.3-5.3-14,0-19.3l12.3-12.3l3.5,3.5L11.1,40.4
		c-3.4,3.4-3.4,8.9,0,12.2c1.6,1.6,3.8,2.5,6.1,2.5s4.5-0.9,6.1-2.5l12.3-12.3l3.5,3.5L26.9,56.2C24.3,58.8,20.9,60.2,17.2,60.2z"/>
	<g id="arrow-down">
		<path fill="#FFFFFF" d="M18.3,18.7l-7.2-7.2c-0.4-0.4-0.4-1,0-1.4l0,0c0.4-0.4,1-0.4,1.4,0l7.2,7.2c0.4,0.4,0.4,1,0,1.4l0,0
			C19.3,19.1,18.7,19.1,18.3,18.7z"/>
		<path fill="#FFFFFF" d="M19,22h-6.9c-0.6,0-1-0.4-1-1v0c0-0.6,0.4-1,1-1H19c0.6,0,1,0.4,1,1v0C20,21.6,19.6,22,19,22z"/>
		<path fill="#FFFFFF" d="M21,17.9V11c0-0.6,0.4-1,1-1h0c0.6,0,1,0.4,1,1v6.9c0,0.6-0.4,1-1,1h0C21.4,18.9,21,18.5,21,17.9z"/>
	</g>
	<g id="arrow-down_1_">
		<path fill="#FFFFFF" d="M46.7,44.1l7.2,7.2c0.4,0.4,0.4,1,0,1.4l0,0c-0.4,0.4-1,0.4-1.4,0l-7.2-7.2c-0.4-0.4-0.4-1,0-1.4l0,0
			C45.7,43.7,46.3,43.7,46.7,44.1z"/>
		<path fill="#FFFFFF" d="M46,40.8h6.9c0.6,0,1,0.4,1,1l0,0c0,0.6-0.4,1-1,1H46c-0.6,0-1-0.4-1-1l0,0C45,41.3,45.4,40.8,46,40.8z"/>
		<path fill="#FFFFFF" d="M44,44.9v6.9c0,0.6-0.4,1-1,1l0,0c-0.6,0-1-0.4-1-1v-6.9c0-0.6,0.4-1,1-1l0,0C43.6,43.9,44,44.4,44,44.9z"
			/>
	</g>
</g>
</svg>
