<?xml version="1.0" encoding="utf-8"?>
<!-- Generator: Adobe Illustrator 18.0.0, SVG Export Plug-In . SVG Version: 6.00 Build 0)  -->
<!DOCTYPE svg PUBLIC "-//W3C//DTD SVG 1.1//EN" "http://www.w3.org/Graphics/SVG/1.1/DTD/svg11.dtd">
<svg version="1.1" id="link-connected" xmlns="http://www.w3.org/2000/svg" xmlns:xlink="http://www.w3.org/1999/xlink" x="0px"
	 y="0px" viewBox="0 0 64 64" enable-background="new 0 0 64 64" xml:space="preserve">
<g>
	<path fill="#FFFFFF" d="M22.6,52.3c-1.5,1.5-3.7,2.4-5.9,2.4s-4.3-0.9-5.9-2.4c-3.3-3.1-3.3-8.4,0-11.6L22.6,29l0.8-0.7
		c1.5-1.5,3.7-2.4,5.9-2.4s4.2,0.8,5.8,2.3l3.5-3.5c-2.5-2.4-5.7-3.7-9.2-3.7c-3.6,0-6.9,1.3-9.4,3.8l-0.8,0.7L7.3,37.3
		c-5.1,5.1-5.1,13.4,0,18.4c2.5,2.5,5.8,3.8,9.4,3.8s6.9-1.3,9.4-3.8l6.9-7l-3.6-3.2L22.6,52.3z"/>
	<path fill="#FFFFFF" d="M41,10.7c1.5-1.5,3.7-2.4,5.9-2.4s4.3,0.9,5.9,2.4c3.3,3.1,3.3,8.4,0,11.6L40.9,34.1l-0.8,0.7
		c-1.5,1.5-3.7,2.4-5.9,2.4s-4.2-0.8-5.8-2.3L25,38.3c2.5,2.4,5.7,3.7,9.2,3.7c3.6,0,6.9-1.3,9.4-3.8l0.8-0.7l11.9-11.7
		c5.1-5.1,5.1-13.4,0-18.4c-2.5-2.5-5.8-3.8-9.4-3.8c-3.6,0-6.9,1.3-9.4,3.8l-6.9,7l3.6,3.2L41,10.7z"/>
</g>
</svg>
