<svg id="mic-stand" xmlns="http://www.w3.org/2000/svg" viewBox="0 0 64 64">
<g>
	<path id="stand" d="M33.5,63.3h-2.4V44.6c-11.9-0.3-19.8-10.1-19.8-19.9H14C14,34.5,20.7,42,32,42s18-7.5,18-17.3h2.8
		c0,9.8-7.3,19.3-19.3,19.9C33.5,44.6,33.5,63.3,33.5,63.3z"/>
	<path id="mic" d="M32,36.9c-5.9,0-10.7-5.9-10.7-13.3v-9C21.3,7.3,26.1,1.3,32,1.3s10.7,5.9,10.7,13.3v9.1
		C42.7,30.9,37.9,36.9,32,36.9z M32,4c-4.7,0-8,4.5-8,10.7v9.1c0,6.1,3.3,10.3,8,10.3s8-4.1,8-10.3v-9.1C40,8.5,36.7,4,32,4z"/>
</g>
</svg>
