<svg id="pencil" xmlns="http://www.w3.org/2000/svg" viewBox="0 0 64 64">
<g>
	<path id="eraser" d="M56.6,13.9l-7.5-7.5l4.2-4.2c0.8-0.8,2-0.8,2.8,0l4.7,4.7c0.8,0.8,0.8,2,0,2.8L56.6,13.9z"/>
	<rect id="divider" x="45.9" y="10.6" transform="matrix(0.7071 0.7071 -0.7071 0.7071 23.3152 -32.8102)" width="10.7" height="2.2"/>
	<path id="core" d="M49.8,14C49.8,14,49.8,14,49.8,14L16.4,47.3c-0.2,0.2-0.5,0.2-0.8,0s-0.2-0.5,0-0.8L49,13.2c0,0,0,0,0,0
		l-3.7-3.7l-36,36l8,8l36-36L49.8,14z"/>
	<polygon id="tip" points="8.9,46.4 4,58.7 16.6,54.1 13.8,52.7 13.1,50.6 11,49.9 10.3,47.8 	"/>
</g>
</svg>
