<svg id="person-male" xmlns="http://www.w3.org/2000/svg" viewBox="0 0 64 64">
<g>
	<path id="head" fill="#FFFFFF" d="M43.1,24.8c-0.8,0.9-1.7,1.6-2.6,1.9c-0.2,5.7-4.4,10.2-9.5,10.2c-5,0-9.2-4.4-9.5-10
		c-0.8-0.4-1.7-1-2.4-1.9c-1.8-2.1-2.1-4.6-0.9-5.8c0.4-0.3,0.8-0.5,1.4-0.5c-1-1.7-1.5-3.7-1.5-5.8c0-6.6,5.4-12,12-12
		c3.6,0,6.8,1.6,9,4c0.8,0,1.6,0.2,2.4,0.6c3.3,1.8,3.9,7,1.4,11.5c-0.3,0.5-0.6,0.9-0.9,1.4c0.7-0.1,1.4,0.1,1.9,0.5
		C45.1,20.2,44.8,22.7,43.1,24.8z"/>
	<path id="base" fill="#FFFFFF" d="M55.5,57c0,0-6.3,4.2-25.4,4.2S6,57,6,57s-1.4-8.6,0-10.9c1.4-2.2,9.8-6.2,14.4-6.2
		C25,39.9,25,34,25,34h11.5c0,0,0,5.9,4.6,5.9c4.6,0,13,4,14.4,6.2C56.9,48.4,55.5,57,55.5,57z"/>
</g>
</svg>
