<svg id="quotes-right" xmlns="http://www.w3.org/2000/svg" viewBox="0 0 64 64">
<g>
	<path id="quote-left" fill="#FFFFFF" d="M1,49.1c9-4.4,13.5-9.6,13.5-15.6c-3.8-0.4-7-2-9.5-4.7c-2.5-2.7-3.8-5.8-3.8-9.4
		c0-3.8,1.2-6.9,3.7-9.5C7.3,7.3,10.4,6,14.1,6c4.1,0,7.7,1.7,10.8,5c3,3.4,4.5,7.4,4.5,12.2c0,14.4-8.1,25.7-24.2,33.8L1,49.1z"/>
	<path id="quote-right" fill="#FFFFFF" d="M34.6,49.1c9.1-4.4,13.6-9.6,13.6-15.6c-3.9-0.4-7.1-2-9.6-4.7c-2.5-2.7-3.8-5.8-3.8-9.4
		c0-3.8,1.2-6.9,3.7-9.5C41,7.3,44.1,6,47.8,6c4.1,0,7.7,1.7,10.7,5c3,3.4,4.5,7.4,4.5,12.2c0,14.4-8,25.7-24.1,33.8L34.6,49.1z"/>
</g>
</svg>
