<svg id="refresh" xmlns="http://www.w3.org/2000/svg" viewBox="0 0 64 64">
<g>
	<path id="down-right-arrow" d="M60.9,2.9c-1.3-0.4-2.5,0.6-2.5,0.6l-5.6,5.7C47.3,4.2,39.7,1,31.3,1C15.4,1,2.4,12,1,25.2
		C0.9,26.4,2,27,3.4,27h5c1.2,0,2.2-0.4,2.3-1.5c1.1-8.6,9.9-16.1,20.6-16.1c6,0,11.4,2.5,15.2,6.3c-3.2,3.2-6.4,6.6-6.9,7.2
		c-1,1.1-0.7,2.4-0.7,2.4c0.2,1.2,1.4,1.8,2.7,1.8H60c1.4,0,3-0.9,3-2.3V5.7C62.9,3.8,61.9,3.3,60.9,2.9z"/>
	<path id="up-left-arrow" d="M3.1,61.1c1.3,0.4,2.5-0.6,2.5-0.6l5.6-5.7c5.5,5,13.1,8.2,21.6,8.2C48.6,63,61.6,51.5,63,38.3
		c0.1-1.2-1-2.3-2.4-2.3h-5c-1.2,0-2.2,0.9-2.3,2c-1.1,8.6-9.9,16.4-20.6,16.4c-6,0-11.4-2.4-15.2-6.1c3.2-3.2,6.4-6.6,6.9-7.1
		c1-1.1,0.7-2.9,0.7-2.9C25,37.1,23.7,36,22.5,36H4c-1.4,0-3,1.9-3,3.3v18.9C1,60.2,2.1,60.7,3.1,61.1z"/>
</g>
</svg>
