<svg id="rocket-ship" xmlns="http://www.w3.org/2000/svg" viewBox="0 0 96 96">
<g>
	<path id="exhaust" fill="#FFFFFF" d="M49.2,48.3l4.9,3.3c-0.5,0.8-1,1.5-1.5,2.4c-2,3.1-7.2,10.3-9.9,13.3L39.3,65
		c2.3-4.4,7.3-12.8,8.3-14.4C48.2,49.8,48.7,49.1,49.2,48.3z M39.3,65C36.5,70.3,33,80,33,80s5.7-7.8,9.8-12.6c0,0,0.1-0.1,0.1-0.1
		L39.3,65"/>
	<path id="ship" fill="#FFFFFF" d="M42.7,48.1c3.7-5.6,7.6-10.3,11.3-13.7L65,41.7c-1.7,4.7-4.5,10.2-8.2,15.7
		c-2.4,3.6-4.9,6.8-7.3,9.6l0.2,13.2l-9.1,13.7l0-19c-0.4,0.3-0.9,0.5-1.3,0.7l-6.7-4.5c0-0.6,0.1-1.2,0.3-1.9L15,77l9.1-13.7
		l12.8-5.2C38.4,54.9,40.4,51.5,42.7,48.1z M65,41.7l8.2-24.7L53.9,34.4l0,0"/>
</g>
</svg>
