<svg id="search-add" xmlns="http://www.w3.org/2000/svg" viewBox="0 0 64 64">
<g>
	<path id="magnify-glass" d="M57.8,50.8c0-0.1-0.1-0.1-0.2-0.2L57,50L36.3,33.4c0,0-0.5-0.4-0.7-0.5c2.8-3.4,4.4-7.7,4.4-12.3
		C40,9.7,31.3,1,20.5,1S1,9.7,1,20.5C1,31.3,9.7,40,20.5,40c4.6,0,8.9-1.6,12.2-4.3c0.2,0.2,0.6,0.7,0.6,0.7L52,55.1l0.6,0.6
		c0,0,0.1,0.1,0.2,0.1c0.7,0.4,1.6,0.2,2.2-0.4l2.5-2.4c0.4-0.4,0.6-0.9,0.6-1.4C58,51.3,57.9,51,57.8,50.8z M20.5,35
		C11.5,35,6,29.5,6,20.5C6,11.5,11.5,6,20.5,6S35,11.5,35,20.5C35,29.5,29.5,35,20.5,35z"/>
	<path id="plus" d="M30,22h-8v8h-3v-8h-8v-3h8v-8h3v8h8V22z"/>
</g>
</svg>
