<svg id="share" xmlns="http://www.w3.org/2000/svg" viewBox="0 0 64 64">
<g>
	<path id="circle-left" d="M23.9,33.5c0,6-4.7,10.7-10.7,10.7S2.6,39.4,2.6,33.5s4.7-10.7,10.7-10.7S23.9,27.5,23.9,33.5z"/>
	<path id="top-right" d="M56,13L21.3,32L19,27L53,8L56,13z M62.2,12.2c0,6-4.7,10.7-10.7,10.7s-10.7-4.7-10.7-10.7
		S45.6,1.5,51.6,1.5S62.2,6.2,62.2,12.2z"/>
	<path id="bottom-right" d="M62.2,52.6c0,6-4.7,10.7-10.7,10.7s-10.7-4.7-10.7-10.7S45.6,42,51.6,42S62.2,46.7,62.2,52.6z M55.4,58
		L18.5,40l2.5-4l36,17L55.4,58z"/>
</g>
</svg>
