<svg id="speaker" xmlns="http://www.w3.org/2000/svg" viewBox="0 0 64 64">
<g>
	<path id="speaker-body" d="M30,57.9L13.8,45.3H6.7V21.1h6.8L30,5.9V57.9z M15.1,43.7l12.9,10V10.5l-12.9,12v12.5L15.1,43.7z
		 M8.7,43.3h4.3v-8.3l-0.1-11.8H8.7C8.7,23.1,8.7,43.3,8.7,43.3z"/>
		<rect id="crossed-out" x="-3.6" y="30.5" transform="matrix(-0.606 -0.7954 0.7954 -0.606 11.9241 68.9808)" width="53.3" height="2"/>
	<path id="volume" d="M36.2,44.1l2.1,1.3c2.6-3.6,4.1-7.9,4.1-12.7c0-4.9-1.6-9.3-4.3-13L36,21.1c2.5,3.3,3.9,7.3,3.9,11.6
		C39.9,36.9,38.5,40.9,36.2,44.1z M42.1,47.3l2.3,1.7c2.7-4.8,4.9-10.6,4.9-16.9c0-6.5-2.3-11.7-5.2-16.7l-2.2,1.8
		c2.5,4.4,4.7,9.1,4.7,14.8C46.7,37.7,44.5,42.9,42.1,47.3z M48,51.4l2.5,2.1c3.2-6.1,6.5-12.7,6.5-20.7c0-8.2-2.7-14.9-6.1-21.2
		l-2.5,2.2c3.1,5.6,5.7,11.5,5.7,18.9C54.1,39.9,50.9,45.9,48,51.4z"/>
</g>
</svg>
