<svg id="usb" xmlns="http://www.w3.org/2000/svg" viewBox="0 0 64 64">
<g>
	<path id="path" fill="#ffffff" d="M61.2,39.5L28.8,7.1l-3.1,3.1l-8.5-8.5c-1.3-1.3-3.4-1.3-4.6,0L1.8,12.5c-1.3,1.3-1.3,3.4,0,4.6
		l8.5,8.5l-3.1,3.1l32.4,32.4c2.6,2.6,6.7,2.6,9.3,0l12.3-12.3C63.8,46.2,63.8,42,61.2,39.5z M10.3,19.4c-0.4,0.4-1.1,0.4-1.5,0
		l-1.5-1.5c-0.4-0.4-0.4-1.1,0-1.5L9.5,14c0.4-0.4,1.1-0.4,1.5,0l1.5,1.5c0.4,0.4,0.4,1.1,0,1.5L10.3,19.4z M17.3,12.5
		c-0.4,0.4-1.1,0.4-1.5,0l-1.5-1.5c-0.4-0.4-0.4-1.1,0-1.5l2.3-2.3c0.4-0.4,1.1-0.4,1.5,0l1.5,1.5c0.4,0.4,0.4,1.1,0,1.5L17.3,12.5z
		 M42.7,47.2c-1-1-1.2-2.5-0.6-3.7L40,41.4c-2.9,2.9-7.1,2-10.6-1c-1.1,0.8-2.6,0.7-3.6-0.2c-1.1-1.1-1.1-2.8,0-3.9
		c1.1-1.1,2.8-1.1,3.9,0c0.9,0.9,1,2.2,0.4,3.3c3.2,2.6,7,3.2,9.2,1L28.1,29.5l-1.9,1.9l-1.3-6.6l6.6,1.3l-1.9,1.9L40,38.3
		c1.4-1.4,1.9-5.8-0.5-9.3l-1.7,1.7L34,26.9l3.9-3.9l3.9,3.9l-1.4,1.4c2.8,4,2.4,9,0.5,10.8l2.8,2.8c1.2-0.6,2.7-0.4,3.7,0.6
		c1.3,1.3,1.3,3.4,0,4.6C46.1,48.5,44,48.5,42.7,47.2z"/>
</g>
</svg>
